<svg width="24" height="24" viewBox="0 0 24 24" fill="none" xmlns="http://www.w3.org/2000/svg">
<path fill-rule="evenodd" clip-rule="evenodd" d="M7.5 5.25C7.5 5.05109 7.57902 4.86032 7.71967 4.71967C7.86032 4.57902 8.05109 4.5 8.25 4.5H20.25C20.4489 4.5 20.6397 4.57902 20.7803 4.71967C20.921 4.86032 21 5.05109 21 5.25V18.75C21 18.9489 20.921 19.1397 20.7803 19.2803C20.6397 19.421 20.4489 19.5 20.25 19.5H8.25C8.05109 19.5 7.86032 19.421 7.71967 19.2803C7.57902 19.1397 7.5 18.9489 7.5 18.75V15.75C7.5 15.5511 7.42098 15.3603 7.28033 15.2197C7.13968 15.079 6.94891 15 6.75 15C6.55109 15 6.36032 15.079 6.21967 15.2197C6.07902 15.3603 6 15.5511 6 15.75V18.75C6 19.3467 6.23705 19.919 6.65901 20.341C7.08097 20.7629 7.65326 21 8.25 21H20.25C20.8467 21 21.419 20.7629 21.841 20.341C22.2629 19.919 22.5 19.3467 22.5 18.75V5.25C22.5 4.65326 22.2629 4.08097 21.841 3.65901C21.419 3.23705 20.8467 3 20.25 3H8.25C7.65326 3 7.08097 3.23705 6.65901 3.65901C6.23705 4.08097 6 4.65326 6 5.25V8.25C6 8.44891 6.07902 8.63968 6.21967 8.78033C6.36032 8.92098 6.55109 9 6.75 9C6.94891 9 7.13968 8.92098 7.28033 8.78033C7.42098 8.63968 7.5 8.44891 7.5 8.25V5.25Z" fill="black" fill-opacity="0.8"/>
<path fill-rule="evenodd" clip-rule="evenodd" d="M16.281 12.53C16.3508 12.4603 16.4063 12.3776 16.4441 12.2864C16.4819 12.1953 16.5013 12.0976 16.5013 11.999C16.5013 11.9003 16.4819 11.8027 16.4441 11.7115C16.4063 11.6204 16.3508 11.5377 16.281 11.468L11.781 6.96799C11.7113 6.89826 11.6285 6.84295 11.5374 6.80521C11.4463 6.76747 11.3486 6.74805 11.25 6.74805C11.1514 6.74805 11.0537 6.76747 10.9626 6.80521C10.8715 6.84295 10.7887 6.89826 10.719 6.96799C10.6493 7.03773 10.594 7.12051 10.5562 7.21162C10.5185 7.30273 10.4991 7.40038 10.4991 7.49899C10.4991 7.59761 10.5185 7.69526 10.5562 7.78637C10.594 7.87748 10.6493 7.96026 10.719 8.02999L13.9395 11.249H0.75C0.551088 11.249 0.360322 11.328 0.21967 11.4687C0.0790176 11.6093 0 11.8001 0 11.999C0 12.1979 0.0790176 12.3887 0.21967 12.5293C0.360322 12.67 0.551088 12.749 0.75 12.749H13.9395L10.719 15.968C10.6493 16.0377 10.594 16.1205 10.5562 16.2116C10.5185 16.3027 10.4991 16.4004 10.4991 16.499C10.4991 16.5976 10.5185 16.6953 10.5562 16.7864C10.594 16.8775 10.6493 16.9603 10.719 17.03C10.7887 17.0997 10.8715 17.155 10.9626 17.1928C11.0537 17.2305 11.1514 17.2499 11.25 17.2499C11.3486 17.2499 11.4463 17.2305 11.5374 17.1928C11.6285 17.155 11.7113 17.0997 11.781 17.03L16.281 12.53Z" fill="black" fill-opacity="0.8"/>
</svg>
