<svg width="24" height="24" viewBox="0 0 24 24" fill="none" xmlns="http://www.w3.org/2000/svg">
<rect width="24.0031" height="24" fill="#EDEDED"/>
<path d="M11.2656 18.6C11.4203 18.8391 11.6922 18.9984 12.0016 18.9984C12.3109 18.9984 12.5828 18.8391 12.7422 18.6L17.9078 10.6219C18.6016 9.54844 19.0047 8.36719 19.0047 6.99844C19 3.04219 15.8922 0 12.0016 0C8.11094 0 5.00312 3.04219 5.00312 6.99844C5.00312 8.36719 5.40625 9.54844 6.1 10.6219L11.2656 18.6ZM12.0016 3C14.2094 3 16 4.79063 16 6.99844C16 9.20625 14.2094 10.9969 12.0016 10.9969C9.79375 10.9969 8.00312 9.20625 8.00312 6.99844C8.00312 4.79063 9.79375 3 12.0016 3ZM17.1297 15.1641L12.0016 21.9984L6.87344 15.1641C5.12031 16.0828 4 17.4562 4 18.9984C4 21.7594 7.58125 24 12.0016 24C16.4219 24 20.0031 21.7594 20.0031 18.9984C20.0031 17.4562 18.8828 16.0828 17.1297 15.1641Z" fill="#A61E2A"/>
</svg>
